<?xml version="1.0" encoding="utf-8"?>
<!-- Generator: Adobe Illustrator 22.0.1, SVG Export Plug-In . SVG Version: 6.00 Build 0)  -->
<svg version="1.1" id="Ebene_1" xmlns="http://www.w3.org/2000/svg" xmlns:xlink="http://www.w3.org/1999/xlink" x="0px" y="0px"
	 viewBox="0 0 219.3 72.3" style="enable-background:new 0 0 219.3 72.3;" xml:space="preserve">
<g>
	<path fill="#ffffff" d="M125.2,37.6h-2.4v12.2h2.6c3.3,0,4.9-1.4,4.9-5.9C130.3,38.9,128.6,37.6,125.2,37.6z"/>
	<path fill="#ffffff" d="M129.5,26.7c0-3.2-1.3-4.6-3.9-4.6h-2.7v9.8h2.2C127.8,31.8,129.5,30.6,129.5,26.7z"/>
	<path fill="#ffffff" d="M185.4,22.4h-2.2v11.3h2.2c3,0,4.5-1.1,4.5-5.8C189.9,23.5,188.4,22.4,185.4,22.4z"/>
	<path fill="#ffffff" d="M190.6,0c-6,0-11.6,2.4-16.3,6.4c-4.6-4-10.2-6.4-16.3-6.4c-6,0-11.6,2.4-16.3,6.4c-4.6-4-10.2-6.4-16.3-6.4
		c-6,0-11.6,2.3-16.2,6.3C104.7,2.3,99.1,0,93.1,0c-6,0-11.5,2.3-16.1,6.2C72.4,2.3,66.8,0,60.9,0c-6,0-11.5,2.3-16.1,6.2
		C40.2,2.3,34.7,0,28.7,0C12.9,0,0,16.2,0,36.2c0,20,12.9,36.2,28.7,36.2c6,0,11.5-2.3,16.1-6.2c4.6,3.9,10.1,6.2,16.1,6.2
		c6,0,11.5-2.3,16.1-6.2c4.6,3.9,10.1,6.2,16.1,6.2c6,0,11.6-2.3,16.2-6.3c4.6,4,10.2,6.3,16.2,6.3c6,0,11.6-2.4,16.3-6.4
		c4.6,4,10.2,6.4,16.3,6.4c6,0,11.6-2.4,16.3-6.4c4.6,4,10.2,6.4,16.3,6.4c15.9,0,28.7-16.2,28.7-36.2C219.3,16.2,206.4,0,190.6,0z
		 M31.6,56c-7.4,0-10.7-3.8-10.7-10v-2.6H28V46c0,2.9,1.3,3.9,3.5,3.9c2.3,0,3.6-1.2,3.6-4.1c0-3.3-2.8-5.5-5.6-7.6
		c-3.9-2.9-8.3-6.4-8.3-13c0-5.8,4.2-9.4,10.2-9.4c7,0,10.2,3.8,10.2,10v1.8h-7.2v-1.8c0-2.8-1.1-3.9-3-3.9c-2,0-3.1,1.2-3.1,3.4
		c0,3.3,3.1,5.7,5.9,7.7c4,2.9,8,6.3,8,12.8C42.3,52.3,37.9,56,31.6,56z M72.6,46c0,6.2-3.1,10-10.6,10c-7.4,0-10.5-3.8-10.5-10
		V16.3h7.2V46c0,2.9,1.1,3.9,3.3,3.9c2.3,0,3.4-1.1,3.4-3.9V16.3h7.2V46z M104.5,46c0,6.2-3.1,10-10.6,10c-7.4,0-10.5-3.8-10.5-10
		V16.3h7.2V46c0,2.9,1.1,3.9,3.3,3.9c2.3,0,3.4-1.1,3.4-3.9V16.3h7.2V46z M126.7,55.5h-11V16.3h10.4c7.4,0,10.6,4,10.6,10.2
		c0,3.8-1.5,6.6-4,8c3,1.5,4.9,4.6,4.9,9.3C137.5,51.6,134.3,55.5,126.7,55.5z M166.3,55.5h-18.5V16.3h18v6.1h-10.8v9.4h8.9v6.1
		h-8.9v11.5h11.4V55.5z M190.7,55.5l-4.6-15.7h-2.9v15.7H176V16.3h9.9c7.8,0,11.1,3.8,11.1,11.6c0,5.2-1.2,8.6-4.4,10.4l5.7,17.2
		H190.7z"/>
</g>
</svg>
